<svg xmlns="http://www.w3.org/2000/svg" width="166" height="148" fill="none"><rect width="166" height="148" fill="url(#a)" rx="20"/><path fill="#1D1D1F" fill-rule="evenodd" d="M83 48c-28.719 0-52 11.64-52 26s23.281 26 52 26 52-11.64 52-26-23.281-26-52-26zm0 47.895c-26.452 0-47.895-9.803-47.895-21.895 0-12.092 21.443-21.895 47.895-21.895S130.895 61.908 130.895 74c0 12.092-21.443 21.895-47.895 21.895zm-6.558-30.562v4.106h5.282v13.228h4.107V69.439h5.281v-4.106h-14.67zm32.378 17.334h-4.105L97.27 72.348v10.319h-4.105V65.333h4.105l7.445 10.319V65.333h4.105v17.334zM57.059 65.333v17.334h4.104v-9.805l3.114 4.786h2.894l3.113-4.785v9.804h4.103V65.333h-4.103l-4.56 7.015-4.56-7.015h-4.105z" clip-rule="evenodd"/><defs><radialGradient id="a" cx="0" cy="0" r="1" gradientTransform="matrix(0 112.5 -126.182 0 83 74)" gradientUnits="userSpaceOnUse"><stop offset=".48" stop-color="#FFD600"/><stop offset="1" stop-color="#B09713"/></radialGradient></defs></svg>