<svg xmlns="http://www.w3.org/2000/svg" width="166" height="148" fill="none"><rect width="166" height="148" fill="url(#a)" rx="20"/><path fill="#A08FF9" stroke="#BBB5F7" stroke-linejoin="round" stroke-miterlimit="2" stroke-width=".002" d="M101.009 57.056H136v34.993h-34.991V57.056z"/><path fill="#A08FF9" stroke="#8D6CFA" stroke-linejoin="round" stroke-miterlimit="2" stroke-width=".002" d="M61.165 22h42.963v34.993H61.165V22z"/><path fill="#BBB5F7" fill-rule="evenodd" stroke="#C799FF" stroke-linejoin="round" stroke-miterlimit="2" stroke-width=".002" d="M37.088 108.575c0-6.312 5.129-11.436 11.439-11.436 6.309 0 11.438 5.124 11.438 11.436s-5.129 11.437-11.438 11.437c-6.31 0-11.44-5.125-11.44-11.437z" clip-rule="evenodd"/><path fill="#8D6CFA" stroke="#8D6CFA" stroke-linejoin="round" stroke-miterlimit="2" stroke-width=".002" d="M101.009 22H136v34.993h-34.991V22z"/><path fill="#BBB5F7" fill-rule="evenodd" stroke="#C799FF" stroke-linejoin="round" stroke-miterlimit="2" stroke-width=".002" d="M31 39.497C31 29.84 38.84 22 48.5 22h17.492v34.993H48.501C38.84 56.993 31 49.153 31 39.497zm35.056 17.559h34.993v34.993H78.303c-6.763 0-12.247-5.488-12.247-12.248V57.056z" clip-rule="evenodd"/><path fill="#BBB5F7" fill-rule="evenodd" stroke="#C799FF" stroke-linejoin="round" stroke-miterlimit="2" stroke-width=".002" d="M101.009 91.975H136v17.496c0 9.657-7.837 17.497-17.487 17.497-9.667 0-17.504-7.84-17.504-17.497V91.975z" clip-rule="evenodd"/><defs><radialGradient id="a" cx="0" cy="0" r="1" gradientTransform="matrix(0 112.5 -126.182 0 83 74)" gradientUnits="userSpaceOnUse"><stop stop-color="#7152D9"/><stop offset="1" stop-color="#462D96"/></radialGradient></defs></svg>