<svg xmlns="http://www.w3.org/2000/svg" width="166" height="148" fill="none"><g clip-path="url(#a)"><rect width="166" height="148" fill="url(#b)" rx="20"/><path fill="#C96700" d="M0 138h174v10H0z"/><path fill="#F4A756" d="M0 138h124.499v10H0z"/><path fill="#F7CA9A" d="M0 138h102.736v10H0z"/><path fill="#fff" d="M84.59 125c-19.939-.023-38.22-11.171-47.468-28.949-9.25-17.775-7.94-39.248 3.4-55.753 8.093-11.783 20.504-19.848 34.507-22.42 14-2.572 28.445.557 40.154 8.703 24.342 16.933 30.458 50.64 13.629 75.139-10.036 14.609-26.573 23.314-44.222 23.28zm.18-103.858c-3.017 0-6.029.27-8.998.814-19.714 3.62-35.317 18.835-39.537 38.55-4.218 19.713 3.78 40.044 20.264 51.508 22.466 15.647 53.388 9.95 68.917-12.658 10.459-15.233 11.668-35.047 3.141-51.455S103.171 21.189 84.77 21.14z"/><path fill="#fff" d="m69.343 89.788-6.679-19.562a.22.22 0 0 1 .027-.203L76.479 49.95a.23.23 0 0 1 .218-.094.23.23 0 0 1 .182.151l6.678 19.56a.23.23 0 0 1-.028.205L69.742 89.845a.228.228 0 0 1-.218.094.233.233 0 0 1-.181-.151zm2.752 2.337 20.54-.623a.242.242 0 0 0 .182-.099l13.787-20.073a.223.223 0 0 0 .014-.236.22.22 0 0 0-.205-.118l-20.545.627a.212.212 0 0 0-.178.097L71.902 91.773a.227.227 0 0 0 .193.352zm27.86-31.322-2.207-.814a6.154 6.154 0 0 0-6.47 1.441l-1.555 1.557.9-2.013a6.253 6.253 0 0 0-.95-6.603l-1.545-1.786 2.2.812a6.152 6.152 0 0 0 6.47-1.39l1.393-1.373-.784 1.794a6.251 6.251 0 0 0 1.005 6.604l1.542 1.771z"/></g><defs><radialGradient id="b" cx="0" cy="0" r="1" gradientTransform="matrix(0 112.5 -126.182 0 83 74)" gradientUnits="userSpaceOnUse"><stop stop-color="#F7840A"/><stop offset="1" stop-color="#B66108"/></radialGradient><clipPath id="a"><rect width="166" height="148" fill="#fff" rx="20"/></clipPath></defs></svg>